<?xml version="1.0" encoding="utf-8"?>
<!-- Generator: Adobe Illustrator 16.0.0, SVG Export Plug-In . SVG Version: 6.00 Build 0)  -->
<!DOCTYPE svg PUBLIC "-//W3C//DTD SVG 1.1//EN" "http://www.w3.org/Graphics/SVG/1.1/DTD/svg11.dtd">
<svg version="1.1" xmlns="http://www.w3.org/2000/svg" xmlns:xlink="http://www.w3.org/1999/xlink" x="0px" y="0px"
	 width="48px" height="27px" viewBox="0 0 419.979 236.988" enable-background="new 0 0 419.979 236.988"
	 xml:space="preserve">
<g id="greybg" display="none">
	<rect x="-61.505" y="-150.646" display="inline" fill="#CFCECE" width="541" height="527"/>
</g>
<g id="back_1_">
	<path fill="#BE1E2D" d="M385.334,175.192c0,5.208-5.373,9.432-12,9.432H56.656c-6.627,0-12-4.224-12-9.432V62.836
		c0-5.209,5.373-9.432,12-9.432h316.678c6.627,0,12,4.223,12,9.432V175.192z"/>
</g>
<g id="all">
	<g>
		<path fill="#FFFFFF" d="M385.334,60.512c0,5.63-5.373,10.194-12,10.194H56.656c-6.627,0-12-4.564-12-10.194V43.098
			c0-5.629,5.373-10.193,12-10.193h316.678c6.627,0,12,4.564,12,10.193V60.512z"/>
		<rect x="44.656" y="51.805" fill="#FFFFFF" width="340.678" height="20.6"/>
	</g>
	<rect x="44.656" y="102.764" fill="#FFFFFF" width="340.678" height="32.5"/>
	<g>
		<circle fill="#1E1E1E" cx="99.899" cy="184.624" r="27.621"/>
	</g>
	<g>
		<path fill="#171617" d="M100.376,157.003c15.254,0,27.621,12.367,27.621,27.622s-12.366,27.621-27.621,27.621"/>
	</g>
	<g>
		<circle fill="#1E1E1E" cx="293.232" cy="184.625" r="27.622"/>
	</g>
	<rect x="330.898" y="106.404" fill="#9B9A9A" width="37" height="78.219"/>
	<rect x="358.398" y="106.404" fill="#707071" width="3" height="78.221"/>
	<g>
		<path fill="#606161" d="M110.111,61.4c0,2.252-2.238,4.079-5,4.079h-45c-2.762,0-5-1.827-5-4.079V49.408
			c0-2.253,2.238-4.079,5-4.079h45c2.762,0,5,1.826,5,4.079V61.4z"/>
		<polygon fill="#7F7F7F" points="90.121,45.329 66.788,65.479 84.454,65.479 105.111,45.329 		"/>
	</g>
	<g>
		<path fill="#606161" d="M309.111,125.4c0,2.252-2.238,4.079-5,4.079h-45c-2.762,0-5-1.827-5-4.079v-11.992
			c0-2.254,2.238-4.08,5-4.08h45c2.762,0,5,1.826,5,4.08V125.4z"/>
		<polygon fill="#7F7F7F" points="289.121,109.328 265.787,129.479 283.454,129.479 304.111,109.328 		"/>
	</g>
	<g>
		<path fill="#606161" d="M176.444,125.4c0,2.252-2.238,4.079-5,4.079h-45c-2.762,0-5-1.827-5-4.079v-11.992
			c0-2.254,2.238-4.08,5-4.08h45c2.762,0,5,1.826,5,4.08V125.4z"/>
		<polygon fill="#7F7F7F" points="156.454,109.328 133.121,129.479 150.788,129.479 171.444,109.328 		"/>
	</g>
	<g>
		<path fill="#606161" d="M242.778,125.4c0,2.252-2.238,4.079-5,4.079h-45.001c-2.762,0-5-1.827-5-4.079v-11.992
			c0-2.254,2.238-4.08,5-4.08h45.001c2.762,0,5,1.826,5,4.08V125.4z"/>
		<polygon fill="#7F7F7F" points="222.788,109.328 199.454,129.479 217.121,129.479 237.778,109.328 		"/>
	</g>
	<g>
		<path fill="#606161" d="M176.361,61.4c0,2.252-2.238,4.079-5,4.079h-45c-2.762,0-5-1.827-5-4.079V49.408
			c0-2.253,2.238-4.079,5-4.079h45c2.762,0,5,1.826,5,4.079V61.4z"/>
		<polygon fill="#7F7F7F" points="156.371,45.329 133.038,65.479 150.704,65.479 171.361,45.329 		"/>
	</g>
	<g>
		<path fill="#606161" d="M375.111,61.4c0,2.252-2.238,4.079-5,4.079h-45c-2.762,0-5-1.827-5-4.079V49.408
			c0-2.253,2.238-4.079,5-4.079h45c2.762,0,5,1.826,5,4.079V61.4z"/>
		<polygon fill="#7F7F7F" points="355.121,45.329 331.787,65.479 349.454,65.479 370.111,45.329 		"/>
	</g>
	<g>
		<path fill="#606161" d="M308.861,61.4c0,2.252-2.238,4.079-5,4.079h-45c-2.762,0-5-1.827-5-4.079V49.408
			c0-2.253,2.238-4.079,5-4.079h45c2.762,0,5,1.826,5,4.079V61.4z"/>
		<polygon fill="#7F7F7F" points="288.871,45.329 265.537,65.479 283.203,65.479 303.861,45.329 		"/>
	</g>
	<g>
		<path fill="#606161" d="M242.611,61.4c0,2.252-2.238,4.079-5,4.079H192.61c-2.762,0-5-1.827-5-4.079V49.408
			c0-2.253,2.238-4.079,5-4.079h45.001c2.762,0,5,1.826,5,4.079V61.4z"/>
		<polygon fill="#7F7F7F" points="222.621,45.329 199.287,65.479 216.954,65.479 237.611,45.329 		"/>
	</g>
	<rect x="359.861" y="87.706" fill="#6C85BC" width="20.5" height="10.699"/>
	<rect x="48.074" y="77.489" fill="#6C85BC" width="8.037" height="21.07"/>
	<path fill="#7F7F7F" d="M55.398,178.229c0,1.104-0.949,2-2.119,2h-7.945c-1.17,0-2.119-0.896-2.119-2v-37.996
		c0-1.104,0.949-2,2.119-2h7.945c1.17,0,2.119,0.896,2.119,2V178.229z"/>
	<path fill="#1E1E1E" d="M53.897,176.876c0,1.026-0.74,1.857-1.652,1.857h-6.196c-0.912,0-1.652-0.831-1.652-1.857v-35.285
		c0-1.026,0.74-1.857,1.652-1.857h6.196c0.912,0,1.652,0.831,1.652,1.857V176.876z"/>
	<rect x="41.216" y="165.068" fill="#6C85BC" width="8.037" height="10.535"/>
	<polygon opacity="0.05" fill="#CFCECE" points="134.648,184.625 225.565,32.904 276.361,32.904 199.565,184.623 	"/>
	<g>
		<path fill="#171617" d="M293.376,157.003c15.255,0,27.62,12.367,27.62,27.622s-12.365,27.621-27.62,27.621"/>
	</g>
</g>
<g id="RED_STUFF">
	<g id="back">
	</g>
	<circle fill="#BE1E2D" cx="293.231" cy="184.625" r="14.288"/>
	<rect x="127.52" y="72.404" fill="#8E191D" width="173.378" height="30.359"/>
	<circle fill="#BE1E2D" cx="99.899" cy="184.624" r="14.288"/>
	<path fill="#8C1824" d="M293.376,170.337c7.891,0,14.288,6.396,14.288,14.288c0,7.891-6.397,14.288-14.288,14.288"/>
	<polygon fill="#BE1E2D" points="110.111,138.904 89.898,109.328 44.656,109.328 44.656,138.904 	"/>
	<path fill="#8C1824" d="M100.376,170.337c7.891,0,14.288,6.396,14.288,14.288c0,7.891-6.397,14.288-14.288,14.288"/>
</g>
<g id="Layer_3">
	<polygon fill="#7F7F7F" points="44.656,112.854 87.898,112.854 103.598,135.38 44.656,135.264 	"/>
	<rect x="130.398" y="74.904" fill="#D8D8D8" width="167.5" height="24.859"/>
	<rect x="252.481" y="77.555" fill="#BFBFBF" width="42.5" height="15.5"/>
	<rect x="152.481" y="82.394" fill="#BFBFBF" width="66.135" height="10.661"/>
	<g>
		<g>
			<path fill="#D8D8D8" d="M142.059,94.319c0.797-3.934,2.751-7.483,6.737-8.897c3.982-1.412,5.92,2.352,8.601,4.318
				c1.25,0.917,2.877,1.268,4.304,0.412c1.04-0.624,1.785-1.315,2.56-2.254c0.279-0.338,2.252-3.563,2.617-2.193
				c1.077,4.049,4.17,8.857,9.096,6.671c4.358-1.935,7.792-5.399,12.96-4.173c3.8,0.901,6.216,4.255,10.301,4.863
				c3.153,0.469,4.509-4.349,1.329-4.821c-4.397-0.654-7.441-4.184-11.785-5.215c-3.774-0.896-7.583,0.884-10.891,2.467
				c-1.416,0.677-4.439,4.035-5.738,0.769c-0.534-1.342-0.673-2.77-1.267-4.113c-0.937-2.119-4.593-2.957-6.467-1.745
				c-1.71,1.105-3.86,5.576-5.44,4.06c-2.083-2-3.938-3.865-6.958-4.151c-7.782-0.737-13.324,5.499-14.778,12.674
				C136.6,96.137,141.419,97.478,142.059,94.319L142.059,94.319z"/>
		</g>
	</g>
	<g>
		<g>
			<path fill="#E2E2E2" d="M139.809,94.069c1.024-3.404,2.428-6.875,4.765-9.601c1.772-2.067,1.973-1.357,1.636,0.566
				c-0.243,1.381-0.065,2.885,0.866,3.982c5.058,5.963,15.569,0.135,21.239-1.737c1.301-0.43,2.421-0.755,3.643-1.389
				c2.293-1.19,2.892-2.457,3.487-0.047c0.369,1.495-0.399,3.867,2.29,4.971c3.436,1.411,7.703-0.291,11.227-0.986
				c3.489-0.688,10.431-3.408,13.17-0.157c1.071,1.272,3.137,0.771,3.926-0.506c1.49-2.411,2.818-5.528,6.057-4.819
				c3.127,0.685,1.788,1.995,3.634,3.84c4.124,4.124,10.092-2.163,13.412-4.125c-1.254-0.72-2.508-1.439-3.762-2.159
				c0.099,1.287,0.318,2.539,0.089,3.835c-0.341,1.933,1.107,3.467,3.076,3.075c2.173-0.433,4.034-0.348,6.097-1.252
				c-1.14-0.299-2.28-0.598-3.42-0.897c0.249,0.634,0.498,1.269,0.747,1.903c0.304,1.032,1.293,1.887,2.411,1.835
				c5.486-0.253,11.244,1.711,16.665,0.411c4.932-1.183,8.329-4.83,13-6.5c-1.025-0.582-2.051-1.164-3.076-1.746
				c1.565,4.078,2.168,8.477,4.753,12.097c0.839,1.176,2.84,1.87,3.926,0.506c1.7-2.133,3.576-4.069,5.5-6
				c-1.393-0.368-2.785-0.735-4.179-1.103c0,0.724,0,1.447,0,2.171c-0.48,3.165,3.688,4.394,4.822,1.329
				c0.34-1.001,0.756-1.969,1.247-2.903c-1.522-0.199-3.046-0.398-4.569-0.597c1.111,3.839,1.616,7.725,5.649,9.494
				c1.212,0.532,2.72,0.401,3.42-0.897c1.188-2.2,3.123-6.074,6.58-4.603c1.505,0.641,3.142,0.186,3.673-1.494
				c0.884-2.798,1.093-5.6,1.5-8.5c0.441-3.152-4.375-4.511-4.822-1.329c-0.401,2.861-0.625,5.733-1.5,8.5
				c1.225-0.498,2.449-0.996,3.673-1.494c-6.173-2.626-10.49,0.97-13.42,6.397c1.14-0.299,2.28-0.598,3.42-0.897
				c-2.642-1.159-2.649-4.083-3.351-6.506c-0.567-1.958-3.58-2.614-4.569-0.597c-0.661,1.346-1.232,2.692-1.753,4.097
				c1.607,0.443,3.215,0.886,4.822,1.329c0.261-1.718,0.238-3.115,0-4.829c-0.27-1.932-2.981-2.304-4.179-1.103
				c-1.924,1.93-3.801,3.866-5.5,6c1.309,0.168,2.617,0.337,3.926,0.506c-2.321-3.252-2.84-7.234-4.247-10.903
				c-0.459-1.195-1.701-2.238-3.076-1.746c-4.194,1.5-7.407,4.668-11.569,6.157c-5.134,1.836-11.45-0.491-16.766-0.246
				c0.804,0.612,1.607,1.224,2.411,1.835c-0.339-1.152-0.726-1.995-1.253-3.097c-0.635-1.329-2.258-1.406-3.42-0.897
				c-1.389,0.608-3.385,0.445-4.903,0.748c1.025,1.025,2.051,2.05,3.076,3.075c0.315-1.788,0.228-3.359,0.089-5.165
				c-0.142-1.838-2.03-3.182-3.762-2.159c-1.25,0.738-2.385,1.626-3.545,2.497c-0.932,0.699-3.402,3.043-3.631,1.703
				c-0.468-2.741-2.706-3.409-5.075-4.156c-6.285-1.982-9.54,1.828-12.646,6.854c1.309-0.169,2.618-0.337,3.926-0.506
				c-2.571-3.052-6.601-3.041-10.268-2.607c-4.646,0.549-9.907,1.357-14.352,2.777c-1.08,0.345-0.626,1.551-0.5-0.59
				c0-0.009-0.339-1.495-0.281-1.201c-0.3-1.534-1.075-3.456-2.436-4.336c-3.498-2.264-6.576,1.219-9.929,2.012
				c-4.736,1.121-9.009,3.72-13.913,4.267c-4.77,0.532-0.716-5.188-4.367-7.327c-7.862-4.606-13,8.186-14.633,13.609
				C134.056,95.835,138.882,97.148,139.809,94.069L139.809,94.069z"/>
		</g>
	</g>
</g>
</svg>
