<?xml version="1.0" encoding="utf-8"?>
<!-- Generator: Adobe Illustrator 16.0.0, SVG Export Plug-In . SVG Version: 6.00 Build 0)  -->
<!DOCTYPE svg PUBLIC "-//W3C//DTD SVG 1.1//EN" "http://www.w3.org/Graphics/SVG/1.1/DTD/svg11.dtd">
<svg version="1.1" xmlns="http://www.w3.org/2000/svg" xmlns:xlink="http://www.w3.org/1999/xlink" x="0px" y="0px" width="658px"
	 height="220px" viewBox="0 0 658 220" enable-background="new 0 0 658 220" xml:space="preserve">
<g id="greybg" display="none">
	<rect x="-31.403" y="-134.05" display="inline" fill="#CFCECE" width="709.403" height="527"/>
</g>
<g id="Layer_2">
	<path fill="#606161" d="M363.166,174.529c0,6.335-4.925,11.471-11,11.471h-24.667c-6.075,0-11-5.136-11-11.471V38.97
		c0-6.335,4.925-11.47,11-11.47h24.667c6.075,0,11,5.135,11,11.47V174.529z"/>
	<path fill="#FFFFFF" d="M37,190c0,0,13.047-156,88.533-166h176.134v166H37z"/>
	<path fill="#CFCECE" d="M741,115"/>
	<path fill="#FFFFFF" d="M323,179c0,6.075-4.925,11-11,11h-9c-6.075,0-11-4.925-11-11V35c0-6.075,4.925-11,11-11h9
		c6.075,0,11,4.925,11,11V179z"/>
	<path fill="#FFFFFF" d="M618.583,179c0,6.075-6.064,11-13.547,11H366.13c-7.482,0-13.547-4.925-13.547-11V35
		c0-6.075,6.064-11,13.547-11h238.906c7.482,0,13.547,4.925,13.547,11V179z"/>
	<rect x="328.832" y="27.5" fill="#7B7A7A" width="6.5" height="158.5"/>
	<rect x="341.832" y="27.5" fill="#7B7A7A" width="6.5" height="158.5"/>
	<rect x="138.333" y="58.667" fill="#232323" width="178.001" height="82"/>
	<rect x="359.333" y="58.667" fill="#232323" width="178.001" height="82"/>
	<rect x="549.001" y="58.667" fill="#232323" width="52" height="117.999"/>
	<rect x="549.001" y="175.395" fill="#EADE6B" width="52" height="5.21"/>
	<path fill="none" stroke="#751616" stroke-width="5" stroke-miterlimit="10" d="M316.334,147.332"/>
	<path fill="#232323" d="M131,140.667v-82h-29.5c0,0-27.5,38.167-26,82H131z"/>
	<rect x="117.5" y="37.5" fill="#741615" width="205.5" height="21.167"/>
	<rect x="352.583" y="37.5" fill="#741615" width="266" height="21.167"/>
	<path fill="#741615" d="M101.5,58.667c0,0,10.167-19.667,16-21.167h1.75v21.167H101.5z"/>
	<rect x="143" y="62" fill="#353434" width="169.5" height="74.5"/>
	<rect x="363" y="62" fill="#353434" width="169.5" height="74.5"/>
	<rect x="554.251" y="63.167" fill="#353434" width="41.5" height="59.833"/>
	<rect x="554.251" y="129.449" fill="#353434" width="41.5" height="40.551"/>
	<path fill="#741615" d="M126.722,138.5"/>
	<path fill="#353434" d="M80,136.5h46.722V63H104.5C104.5,63,85,87,80,136.5z"/>
	<polyline fill="none" stroke="#606161" stroke-width="2" stroke-miterlimit="10" points="387.999,190 387.999,162.665 
		503.999,162.665 503.999,190 	"/>
	<polyline fill="none" stroke="#606161" stroke-width="2" stroke-miterlimit="10" points="168.999,190 168.999,162.665 
		284.999,162.665 284.999,190 	"/>
	<polygon fill="#3F403F" points="248.332,62 184.332,136.5 248.332,136.5 298.332,62 	"/>
	<polygon fill="#3F403F" points="468.332,62 404.332,136.5 468.332,136.5 518.332,62 	"/>
	<path fill="#606161" d="M323,37.5H117.5c0,0-42.5,47.167-42,103.167h240.834l0,0l-272.369,5.187c0,0,9.649-85.649,63.176-116.084
		h214.538C321.679,29.769,325.333,31.333,323,37.5z"/>
	<path fill="#606161" d="M316.334,150.953c0,0-164.527-9.288-219.527,12.212s-54.836-3.211-51.015-18.833H56l260.334-3.665V150.953z
		"/>
	<path fill="none" stroke="#751616" stroke-width="5" stroke-miterlimit="10" d="M316.334,150.953c0,0-173.334-3.621-219.527,12.212
		c-55.863,19.147-54.836-3.211-51.015-18.833"/>
	<path fill="#606161" d="M354.21,29.769h262.746c0,0,1.627-0.936,1.627,7.731h-266C352.583,37.5,351.169,32.839,354.21,29.769z"/>
	<path fill="#606161" d="M545.5,162.665c-22.834-18.333-186.167-12.333-186.167-12.333v-9.665h189.668v21.998H545.5z"/>
	<path fill="#FFFFFF" stroke="#751616" stroke-width="5" stroke-miterlimit="10" d="M359.333,150.332c0,0,163.333-6,186.167,12.333"
		/>
	<path fill="#EADE6B" d="M99.222,179.5c0,2.472-2.004,4.476-4.476,4.476H84.476c-2.472,0-4.476-2.004-4.476-4.476l0,0
		c0-2.472,2.004-4.476,4.476-4.476h10.271C97.218,175.024,99.222,177.028,99.222,179.5L99.222,179.5z"/>
	<path fill="#232323" d="M125.533,24c0,0-63.534,58.33-61.867,138.665c0,0-41.333,32.002-10.506-62.915
		C76.968,26.447,111.066,24,125.533,24z"/>
	<path fill="#353434" d="M103.361,37.5H88.947c0,0-29.967,16.289-45.29,97.562h13.677C57.333,135.062,71.389,66.333,103.361,37.5z"
		/>
	
		<ellipse transform="matrix(0.7486 0.6631 -0.6631 0.7486 49.5085 -55.5548)" fill="#606161" cx="98.004" cy="37.5" rx="4.016" ry="7.667"/>
	<rect x="48.333" y="190" fill="#232323" width="559.333" height="5.998"/>
</g>
</svg>
